<svg xmlns="http://www.w3.org/2000/svg" width="59.811" height="51.404" viewBox="0 0 59.811 51.404">
  <g id="Layer_4" data-name="Layer 4" transform="translate(-0.013 -0.006)">
    <g id="Group_5" data-name="Group 5" transform="translate(0.013 0.006)">
      <g id="Layer_4-2" data-name="Layer 4" transform="translate(0 0)">
        <path id="Path_6" data-name="Path 6" d="M67.9,28.058v2.977c0,1.019-.422,1.438-1.458,1.444-1.487.009-2.977.026-4.464,0-.479-.009-.635.13-.627.618.026,1.51.014,3.02,0,4.53-.012,1.011-.416,1.409-1.421,1.421s-1.984.02-2.977-.006a.671.671,0,0,0-.722.476,42.307,42.307,0,0,0-1.885,6.369c-.863,3.156-1.631,6.34-2.486,9.5a7.323,7.323,0,0,1-13.98.543c-1-2.91-1.894-5.861-2.838-8.792-.064-.2-.043-.505-.289-.528-.326-.029-.286.335-.349.528-.912,2.806-1.793,5.622-2.708,8.425A7.329,7.329,0,0,1,17.536,55.2C16.393,50.934,15.3,46.658,14.2,42.382a19.319,19.319,0,0,0-2.633-5.867A20.4,20.4,0,0,1,8.109,24.146,15.544,15.544,0,0,1,25.37,9.516a15.2,15.2,0,0,1,8.956,4.215c.335.318.494.292.811-.017a15.506,15.506,0,0,1,23.716,2.8.947.947,0,0,0,.927.525c1.227-.02,1.556.326,1.568,1.574.014,1.4.043,2.806-.006,4.207-.023.647.2.794.8.777,1.423-.04,2.847-.014,4.27,0,1.089.012,1.481.413,1.484,1.487v2.977ZM56.171,17.028c.058-.271-.09-.358-.179-.468a13.189,13.189,0,0,0-18.889-1.5c-.774.7-1.4,1.522-2.128,2.261a9.568,9.568,0,0,1-6.494,2.951,1.529,1.529,0,0,1-.944-.153,1.168,1.168,0,0,1,.606-2.183,7.444,7.444,0,0,0,4.579-1.7c.352-.286.381-.476.029-.794C28.7,11.8,24.05,10.711,18.96,12.651c-5.246,2-8.1,6.037-8.509,11.616a16.609,16.609,0,0,0,2.466,9.955,26.849,26.849,0,0,1,3.4,7.077c1.14,4.4,2.272,8.8,3.424,13.195A5.048,5.048,0,0,0,24.5,58.458a4.965,4.965,0,0,0,4.952-3.609c.964-2.925,1.894-5.858,2.83-8.792a2.531,2.531,0,0,1,4.917.1c.924,2.87,1.828,5.746,2.74,8.621a5.008,5.008,0,0,0,9.7-.147c1.418-5.059,2.486-10.209,4.106-15.21.075-.228.043-.32-.219-.407-.881-.283-1.042-.534-1.042-1.452,0-1.467-.02-2.933.014-4.4.012-.52-.107-.71-.664-.693-1.467.04-2.933.017-4.4.012-1.123-.006-1.522-.407-1.522-1.524q0-2.88,0-5.76c0-1.23.381-1.614,1.637-1.62,1.467-.006,2.933-.017,4.4.009.422.006.557-.11.551-.54-.026-1.53-.014-3.063-.012-4.6,0-1.008.4-1.418,1.4-1.423.765,0,1.533,0,2.281,0ZM54.82,22.24h0v2.137c0,1.146-.4,1.548-1.559,1.553-1.423.009-2.847.02-4.27-.006-.534-.012-.777.1-.742.71.055.947.04,1.9.006,2.847-.017.5.118.681.647.67,1.487-.032,2.977-.014,4.467-.006,1.031.006,1.452.427,1.455,1.452.006,1.53.014,3.063-.006,4.594-.006.393.113.525.511.517,1.034-.023,2.07-.029,3.107,0,.462.014.586-.15.58-.595-.02-1.487-.012-2.977,0-4.467.006-1.091.4-1.5,1.475-1.5,1.49-.012,2.977-.023,4.467,0,.456.009.653-.078.632-.595-.043-1.013-.035-2.027,0-3.04.014-.459-.133-.583-.58-.577-1.467.023-2.933.017-4.4,0-1.224-.014-1.585-.387-1.588-1.6-.006-1.467-.014-2.933,0-4.4.006-.41-.1-.575-.54-.563-1.057.029-2.113.02-3.17,0-.358-.006-.494.1-.485.474.023.8.009,1.6.009,2.394Z" transform="translate(-8.089 -9.413)" fill="#fff"/>
      </g>
    </g>
  </g>
</svg>
