<svg xmlns="http://www.w3.org/2000/svg" width="129" height="34" viewBox="0 0 129 34">
  <g id="Group_2" data-name="Group 2" transform="translate(-30 -18)">
    <text id="Gavrilescu" transform="translate(60 35)" fill="#181510" font-size="16" font-family="Poppins-SemiBold, Poppins" font-weight="600"><tspan x="0" y="0">GAVRILESCU</tspan></text>
    <g id="Layer_4" data-name="Layer 4" transform="translate(30.001 22.501)">
      <g id="Group_1" data-name="Group 1" transform="translate(-0.001 -0.001)">
        <path id="Path_1" data-name="Path 1" d="M23.97,6.96A35.883,35.883,0,0,1,22.578,13.9c-.084.305-.217.654-.594.379-.459-.333-1.448-.2-1.137-1.275A39.345,39.345,0,0,0,22,7.656a4.737,4.737,0,0,0-2.174-5.062,4.354,4.354,0,0,0-5.274.459,3.539,3.539,0,0,1-4.344.225C8.781,2.427,7.335,1.609,5.538,2.04a4.549,4.549,0,0,0-3.624,4.9A38.752,38.752,0,0,0,5.9,20.306c.331.642.736,1.616,1.388,1.538.676-.08.5-1.159.652-1.8a19.669,19.669,0,0,1,1.3-4.679,2.937,2.937,0,0,1,4.173-1.434A4.417,4.417,0,0,1,15.4,17.344c.118.776-.836.838-1.366,1.037-.469.176-.369-.4-.473-.674a11.619,11.619,0,0,0-.6-1.572,1.033,1.033,0,0,0-1.947-.036,8.231,8.231,0,0,0-.878,2.834,22.885,22.885,0,0,1-.77,3.393c-.648,1.8-2,2.176-3.49.987a7.225,7.225,0,0,1-1.843-2.447A39.937,39.937,0,0,1,.053,7.379,6.489,6.489,0,0,1,9.45.727a13.675,13.675,0,0,1,1.771.9,1.738,1.738,0,0,0,2.316-.18,6.167,6.167,0,0,1,7.589-.277A6.477,6.477,0,0,1,23.968,6.96Z" transform="translate(0.001 0.001)" fill="#ae9d67"/>
        <path id="Path_2" data-name="Path 2" d="M73.889,86.228a1.633,1.633,0,0,1-1.594-.983,9.4,9.4,0,0,1-.556-1.586c-.257-.951.13-1.49,1.1-1.661.387-.07.459.148.525.419.094.385.168.776.275,1.159.068.241.068.576.4.62.3.04.471-.219.632-.421a14.948,14.948,0,0,0,2.2-4.2c.142-.371.263-.75.411-1.119s.263-.834.82-.517c.449.255,1.2.315.912,1.145a19.922,19.922,0,0,1-2.872,5.854,2.848,2.848,0,0,1-2.246,1.29Z" transform="translate(-57.368 -62.309)" fill="#181510"/>
      </g>
    </g>
    <text id="Dental_Practice" data-name="Dental Practice" transform="translate(61 48)" fill="#181510" font-size="11" font-family="Poppins-SemiBold, Poppins" font-weight="600" letter-spacing="0.002em"><tspan x="0" y="0">DENTAL PRACTICE</tspan></text>
  </g>
</svg>
