<svg xmlns="http://www.w3.org/2000/svg" width="51.869" height="58.971" viewBox="0 0 51.869 58.971">
  <g id="Layer_4" data-name="Layer 4" transform="translate(-0.013 -0.006)">
    <g id="Group_5" data-name="Group 5" transform="translate(0.013 0.006)">
      <path id="Path_4" data-name="Path 4" d="M24.932,10.383c0-1.238-.015-2.475.009-3.711a.822.822,0,0,0-.5-.846A3.1,3.1,0,0,1,23.1,1.812,3.116,3.116,0,0,1,28.96,3.844a2.942,2.942,0,0,1-1.553,2.006.767.767,0,0,0-.468.792c.016,2.475.026,4.949,0,7.424-.007.574.2.684.717.677,1.89-.025,3.78.022,5.668-.017a1.551,1.551,0,0,1,1.58.884c.946,1.72,1.973,3.4,2.918,5.115.3.54.551.5,1.009.232q3.14-1.828,6.313-3.6a.873.873,0,0,0,.516-.907,3.1,3.1,0,1,1,6.164.454,3.091,3.091,0,0,1-3.78,2.584.917.917,0,0,1-.41-.134c-.784-.745-1.445-.29-2.172.138q-2.787,1.638-5.63,3.181c-.549.3-.577.542-.272,1.05.962,1.6,1.859,3.237,2.813,4.841a1.555,1.555,0,0,1,0,1.762c-.994,1.666-1.928,3.365-2.916,5.033-.244.414-.189.607.225.837q3.332,1.859,6.635,3.767A.664.664,0,0,0,47.1,39.9a3.028,3.028,0,0,1,3.416.051,3.1,3.1,0,0,1,1.241,3.4,3.055,3.055,0,0,1-2.641,2.283,3.128,3.128,0,0,1-3.46-3.082.953.953,0,0,0-.57-.957q-3.171-1.771-6.306-3.608c-.5-.294-.722-.213-1,.278-.943,1.695-1.957,3.349-2.887,5.049a1.5,1.5,0,0,1-1.518.86c-1.913-.026-3.828.013-5.741-.01-.534-.006-.705.147-.7.7.029,2.45.025,4.9,0,7.351a.953.953,0,0,0,.551.968,3.013,3.013,0,0,1,1.5,3.21,3.1,3.1,0,0,1-2.343,2.5,3.014,3.014,0,0,1-3.208-1.2,3.073,3.073,0,0,1,.965-4.524.888.888,0,0,0,.541-.894c-.022-2.475-.029-4.949,0-7.424.007-.566-.19-.692-.709-.687-1.938.02-3.876-.015-5.813.007a1.413,1.413,0,0,1-1.4-.8c-.967-1.737-2-3.438-2.967-5.172-.253-.453-.465-.479-.9-.229q-3.2,1.865-6.438,3.671a.908.908,0,0,0-.5.925,3.159,3.159,0,0,1-3.114,3.109A3.182,3.182,0,0,1,.02,42.684a3.1,3.1,0,0,1,2.841-3.27A2.75,2.75,0,0,1,4.79,39.9a.664.664,0,0,0,.843.035c2.16-1.248,4.326-2.487,6.507-3.7.467-.259.544-.466.26-.938-.974-1.621-1.881-3.28-2.854-4.9a1.646,1.646,0,0,1,0-1.891c.977-1.619,1.887-3.277,2.851-4.9.237-.4.209-.614-.212-.85Q8.851,20.9,5.547,18.988a.6.6,0,0,0-.717.055,3,3,0,0,1-3.861-.355,3.112,3.112,0,0,1,2.96-5.255,3.153,3.153,0,0,1,2.292,3.088.765.765,0,0,0,.446.8c2.176,1.22,4.348,2.448,6.5,3.7.416.242.606.194.839-.221,1-1.775,2.041-3.523,3.034-5.3a1.359,1.359,0,0,1,1.348-.77c1.962.023,3.925-.009,5.886.013.5.006.68-.125.667-.648-.035-1.236-.012-2.474-.012-3.711Zm1,31.743v-.007c2.227,0,4.456-.01,6.683.009a.924.924,0,0,0,.927-.52q3.3-5.774,6.639-11.526a1.091,1.091,0,0,0,0-1.257q-3.358-5.783-6.671-11.591a.823.823,0,0,0-.805-.476q-6.755.017-13.509.006a.821.821,0,0,0-.82.451q-3.349,5.871-6.731,11.724A.928.928,0,0,0,11.666,30q3.367,5.818,6.7,11.66a.923.923,0,0,0,.957.472c2.2-.01,4.406,0,6.61,0ZM26.988,3.093a1.055,1.055,0,1,0-2.108.067,1.054,1.054,0,1,0,2.108-.067Zm0,52.759a1.054,1.054,0,1,0-2.108-.013,1.055,1.055,0,1,0,2.108.013ZM4.173,16.417A1.012,1.012,0,0,0,3.1,15.393a1.06,1.06,0,1,0,.064,2.12,1.032,1.032,0,0,0,1.007-1.1Zm45.643,0a1.02,1.02,0,0,0-1.073-1.026,1,1,0,0,0-1.036,1.054,1.014,1.014,0,0,0,1.1,1.066,1.026,1.026,0,0,0,1.007-1.093ZM4.173,42.562a1.031,1.031,0,0,0-1-1.1A1.064,1.064,0,1,0,3.1,43.585a1.014,1.014,0,0,0,1.074-1.024Zm45.643-.071a1.056,1.056,0,1,0-1.007,1.095,1.024,1.024,0,0,0,1.007-1.095Z" transform="translate(-0.013 -0.006)" fill="#fff"/>
      <path id="Path_5" data-name="Path 5" d="M135.422,153.167c-.088.524-.15.964-.238,1.4a12.482,12.482,0,0,1-.333,1.417,1.9,1.9,0,0,1-1.668,1.519,2.037,2.037,0,0,1-2.023-1.173,10.17,10.17,0,0,1-1.059-3.469,13.879,13.879,0,0,1-.175-1.594,5.9,5.9,0,0,0-.77-2.761,7.851,7.851,0,0,1-1-4.28c.112-3.627,2.6-5.748,6.191-5.225a7.8,7.8,0,0,0,2.311,0c3.395-.5,5.809,1.414,6.129,4.836a7.244,7.244,0,0,1-.869,4.445,8,8,0,0,0-.906,3.542,13.548,13.548,0,0,1-.857,3.829,3.558,3.558,0,0,1-.764,1.233,1.856,1.856,0,0,1-3.13-.551,9.533,9.533,0,0,1-.615-2.619.718.718,0,0,0-.219-.543ZM138,155.191a1.329,1.329,0,0,0,.448-.809A16.354,16.354,0,0,0,139.1,150a3.285,3.285,0,0,1,.527-1.7A6.81,6.81,0,0,0,140.755,144c-.159-2.071-1.478-3.269-3.482-3a13.786,13.786,0,0,1-3.621,0,2.723,2.723,0,0,0-3.329,2.391,6.5,6.5,0,0,0,1.069,5,2.893,2.893,0,0,1,.476,1.494,18.274,18.274,0,0,0,.535,4.115,2.308,2.308,0,0,0,.554,1.2,6.658,6.658,0,0,0,.337-1.61,9.507,9.507,0,0,1,.561-2.628,1.713,1.713,0,0,1,1.646-1.116,1.732,1.732,0,0,1,1.591,1.1,5.8,5.8,0,0,1,.446,1.686,14.172,14.172,0,0,0,.465,2.569Z" transform="translate(-109.555 -118.722)" fill="#fff"/>
    </g>
  </g>
</svg>
