<svg id="Group_6" data-name="Group 6" xmlns="http://www.w3.org/2000/svg" width="51" height="55.111" viewBox="0 0 51 55.111">
  <path id="Path_7" data-name="Path 7" d="M19.71,61.9c.018-2.894.437-5.68,2.514-7.9,2.549-2.727,5.875-3.115,9.348-2.935A13.174,13.174,0,0,1,37,52.664a9.668,9.668,0,0,0,9.26,0c.264-.132.518-.287.787-.409.617-.282,1.275-.457,1.635.315.322.693-.173,1.087-.729,1.4-3.844,2.15-7.767,2.493-11.753.442a12.353,12.353,0,0,0-7.482-1.351c-4.7.632-6.936,3.115-7.089,7.873a36.524,36.524,0,0,0,1.485,10,189.311,189.311,0,0,0,5.8,19.7,19.664,19.664,0,0,0,1.742,3.522,6.193,6.193,0,0,0,2.087,2.178c1.285.757,2.308.472,2.872-.889a22.034,22.034,0,0,0,1.1-5.964,27.744,27.744,0,0,1,1.026-5.73,10.806,10.806,0,0,1,.693-1.627,3.415,3.415,0,0,1,3.4-1.978,3.546,3.546,0,0,1,3.136,2.232A15.937,15.937,0,0,1,46.257,87.4c.251,1.927.467,3.862.739,5.786a10.342,10.342,0,0,0,.472,1.838c.653,1.909,1.884,2.283,3.476.99,1.991-1.615,2.91-3.935,3.717-6.248,2.064-5.911,3.758-11.936,5.248-18.019.051-.206.1-.411.162-.614.188-.614.5-1.155,1.236-.983.754.178.777.838.63,1.442-.475,1.93-.944,3.862-1.493,5.771-1.518,5.281-2.841,10.628-5.08,15.673a12.245,12.245,0,0,1-3.034,4.331c-2.719,2.4-5.735,1.564-6.774-1.912a24.885,24.885,0,0,1-.942-5.619,27.782,27.782,0,0,0-.863-5.248,7.307,7.307,0,0,0-.553-1.412,1.7,1.7,0,0,0-1.559-1.112,1.727,1.727,0,0,0-1.645,1.181,21.315,21.315,0,0,0-1.353,6.3,29.222,29.222,0,0,1-1.079,6.231c-1.158,3.156-3.933,3.9-6.525,1.709a14.977,14.977,0,0,1-4.187-6.85,198.175,198.175,0,0,1-6.655-23.937A23.311,23.311,0,0,1,19.71,61.9Z" transform="translate(-19.71 -43.627)" fill="#fff"/>
  <path id="Path_8" data-name="Path 8" d="M150.465,21.9c1.143,0,2.288-.053,3.425.015s1.488.675,1.049,1.721c-.833,1.988-1.681,3.971-2.582,5.928-.416.9-.241,1.2.762,1.178,1.732-.046,3.468-.013,5.2-.008.561,0,1.137.02,1.417.62s-.071,1.046-.452,1.468q-7.484,8.283-14.967,16.567c-.427.47-.894,1.044-1.607.571-.764-.505-.391-1.181-.114-1.808,1.254-2.864,2.516-5.728,3.758-8.6.556-1.282.515-1.33-.843-1.338-1.607-.008-3.214.018-4.821-.01-1.478-.025-1.841-.584-1.254-1.907,1.9-4.291,3.844-8.561,5.695-12.872a2.193,2.193,0,0,1,2.42-1.556c.967.063,1.945.013,2.917.013V21.9Zm-3.641,21.426.259.152c3.184-3.537,6.365-7.076,9.755-10.844-2.067,0-3.753.005-5.438,0-2.011-.008-2.252-.378-1.445-2.267q1.169-2.734,2.387-5.454c.317-.706.175-1.013-.637-.993-1.267.03-2.534.018-3.8.01a1.174,1.174,0,0,0-1.206.734q-2.4,5.381-4.809,10.75c-.315.7-.074.9.622.886,1.688-.023,3.379-.018,5.068,0,1.747.015,2.036.477,1.348,2.082q-1.059,2.468-2.1,4.943Z" transform="translate(-108.839 -21.866)" fill="#fff"/>
</svg>
