<svg xmlns="http://www.w3.org/2000/svg" width="13.795" height="15.766" viewBox="0 0 13.795 15.766">
  <path id="Path_13" data-name="Path 13" d="M3.941,0a.984.984,0,0,1,.985.985v.985H8.868V.985a.985.985,0,0,1,1.971,0v.985h1.478A1.478,1.478,0,0,1,13.8,3.449V4.927H0V3.449A1.478,1.478,0,0,1,1.478,1.971H2.956V.985A.984.984,0,0,1,3.941,0ZM0,5.912H13.8v8.376a1.478,1.478,0,0,1-1.478,1.478H1.478A1.478,1.478,0,0,1,0,14.288ZM1.971,8.376v.985a.494.494,0,0,0,.493.493h.985a.494.494,0,0,0,.493-.493V8.376a.494.494,0,0,0-.493-.493H2.463A.494.494,0,0,0,1.971,8.376Zm3.941,0v.985a.494.494,0,0,0,.493.493H7.39a.494.494,0,0,0,.493-.493V8.376a.494.494,0,0,0-.493-.493H6.4A.494.494,0,0,0,5.912,8.376Zm4.434-.493a.494.494,0,0,0-.493.493v.985a.494.494,0,0,0,.493.493h.985a.494.494,0,0,0,.493-.493V8.376a.494.494,0,0,0-.493-.493ZM1.971,12.317V13.3a.494.494,0,0,0,.493.493h.985a.494.494,0,0,0,.493-.493v-.985a.494.494,0,0,0-.493-.493H2.463A.494.494,0,0,0,1.971,12.317ZM6.4,11.824a.494.494,0,0,0-.493.493V13.3A.494.494,0,0,0,6.4,13.8H7.39a.494.494,0,0,0,.493-.493v-.985a.494.494,0,0,0-.493-.493Zm3.449.493V13.3a.494.494,0,0,0,.493.493h.985a.494.494,0,0,0,.493-.493v-.985a.494.494,0,0,0-.493-.493h-.985A.494.494,0,0,0,9.854,12.317Z"/>
</svg>
