<svg xmlns="http://www.w3.org/2000/svg" width="20.3" height="14.5" viewBox="0 0 20.3 14.5">
  <path id="Path_14" data-name="Path 14" d="M0,101.438A5.436,5.436,0,0,1,5.438,96H5.8a1.45,1.45,0,1,1,0,2.9H5.438A2.539,2.539,0,0,0,2.9,101.438v.363H5.8a2.9,2.9,0,0,1,2.9,2.9v2.9a2.9,2.9,0,0,1-2.9,2.9H2.9A2.9,2.9,0,0,1,0,107.6v-6.163Zm11.6,0A5.436,5.436,0,0,1,17.038,96H17.4a1.45,1.45,0,1,1,0,2.9h-.362a2.539,2.539,0,0,0-2.537,2.537v.363h2.9a2.9,2.9,0,0,1,2.9,2.9v2.9a2.9,2.9,0,0,1-2.9,2.9H14.5a2.9,2.9,0,0,1-2.9-2.9v-6.163Z" transform="translate(0 -96)"/>
</svg>
